# xmcd
#
# Track frame offsets: 
#        150
#        11707
#        22375
#        33395
#        44690
#        58850
#        70250
#        81355
#        88830
#        97312
#        115207
#        128147
#        138105
#        148735
#        160405
#        174415
#        186555
#        200160
#        208907
#        219895
#
# Disc length: 3059 seconds
#
# Revision: 2
# Processed by: cddbd v1.5.2PL0 Copyright (c) Steve Scherf et al.
# Submitted via: ExactAudioCopyFreeDBPlugin 1.0
#
DISCID=410bf114
DTITLE=Various Artist - The Original Dueling Banjos
DYEAR=2002
DGENRE=Bluegrass
TTITLE0=Don Reno - Feudin' Banjos (The Original Dueling Banjos)
TTITLE1=The Nashville Superpickers - Thank God I'm A Country Boy
TTITLE2=Arthur Smith and Don Reno - Redeliverance (Blackberry Rag)
TTITLE3=Arthur Smith and Don Reno - Pennsylvania Polka
TTITLE4=Don Reno - Down That Last Lonesome Highway
TTITLE5=David West and Richard Greene - The Times They Are a-Changin'
TTITLE6=Arthur Smith - Bye and Bye
TTITLE7=Arthur Smith and Benny Martin - Twelve String Rag (Steel Guitar 
TTITLE7=Rag)
TTITLE8=Arthur Smith and Benny Martin - Under The Silv'ry Moon
TTITLE9=David West and Richard Greene and Al Di Marco - Fortunate Son
TTITLE10=Arthur Smith and Don Reno - Chicken
TTITLE11=Arthur Smith and Don Reno - Twelfth Street Rag
TTITLE12=Arthur Smith and Benny Martin - Down In Dixie
TTITLE13=Arthur Smith and Don Reno - Memphis Five String
TTITLE14=The Nashville Superpickers - Promises
TTITLE15=Don Reno - Nova Scotia Sleigh Ride
TTITLE16=Don Reno - Mountaineer's Farewell
TTITLE17=Arthur Smith and Benny Martin - Wildflower Guitar
TTITLE18=Arthur Smith - Little Footprints In The Snow
TTITLE19=Arthur Smith - Dueling Banjos
EXTD=YEAR: 2000
EXTT0=
EXTT1=
EXTT2=
EXTT3=
EXTT4=
EXTT5=
EXTT6=
EXTT7=
EXTT8=
EXTT9=
EXTT10=
EXTT11=
EXTT12=
EXTT13=
EXTT14=
EXTT15=
EXTT16=
EXTT17=
EXTT18=
EXTT19=
PLAYORDER=
